HIERARCHY
ROOT newVegas:Hips
{
	OFFSET 0.000000 96.479958 0.000000
	CHANNELS 6 Xposition Yposition Zposition Xrotation Yrotation Zrotation
	JOINT newVegas:Pelvis
	{
		OFFSET 0.000000 0.000000 0.000000
		CHANNELS 3 Xrotation Yrotation Zrotation
		JOINT newVegas:LeftUpLeg
		{
			OFFSET 18.735201 -5.666702 -4.541200
			CHANNELS 3 Xrotation Yrotation Zrotation
			JOINT newVegas:LeftLeg
			{
				OFFSET -0.021200 -31.938179 0.493100
				CHANNELS 3 Xrotation Yrotation Zrotation
				JOINT newVegas:LeftFoot
				{
					OFFSET 0.021200 -31.938179 -4.336299
					CHANNELS 3 Xrotation Yrotation Zrotation
					JOINT newVegas:LeftToeBase
					{
						OFFSET 0.943001 -26.722000 15.023500
						CHANNELS 3 Xrotation Yrotation Zrotation
						End Site
						{
							OFFSET 0.000000 30.670183 0.000000
						}
					}
				}
				JOINT newVegas:Left_PantLeg
				{
					OFFSET 0.663870 -9.044666 -1.108900
					CHANNELS 3 Xrotation Yrotation Zrotation
					End Site
					{
						OFFSET 1.415995 20.635357 0.000000
					}
				}
			}
		}
		JOINT newVegas:RightUpLeg
		{
			OFFSET -18.735201 -5.666702 -4.541200
			CHANNELS 3 Xrotation Yrotation Zrotation
			JOINT newVegas:RightLeg
			{
				OFFSET 0.018946 -31.938133 0.493100
				CHANNELS 3 Xrotation Yrotation Zrotation
				JOINT newVegas:RightFoot
				{
					OFFSET -0.018946 -31.938126 -4.336299
					CHANNELS 3 Xrotation Yrotation Zrotation
					JOINT newVegas:RightToeBase
					{
						OFFSET -0.943001 -26.722004 15.023500
						CHANNELS 3 Xrotation Yrotation Zrotation
						End Site
						{
							OFFSET 0.000000 30.670187 0.000000
						}
					}
				}
				JOINT newVegas:Right_PantLeg
				{
					OFFSET -0.661674 -9.044716 -1.108900
					CHANNELS 3 Xrotation Yrotation Zrotation
					End Site
					{
						OFFSET -1.415958 20.635269 0.000000
					}
				}
			}
		}
	}
	JOINT newVegas:Spine
	{
		OFFSET 0.000000 10.199997 -0.299500
		CHANNELS 3 Xrotation Yrotation Zrotation
		JOINT newVegas:Spine1
		{
			OFFSET 0.000000 11.900002 -1.516600
			CHANNELS 3 Xrotation Yrotation Zrotation
			JOINT newVegas:Spine2
			{
				OFFSET 0.000000 13.600006 -2.842500
				CHANNELS 3 Xrotation Yrotation Zrotation
				JOINT newVegas:Neck
				{
					OFFSET 0.000000 9.624100 -2.890100
					CHANNELS 3 Xrotation Yrotation Zrotation
					JOINT newVegas:Head
					{
						OFFSET 0.000000 14.068802 -1.351900
						CHANNELS 3 Xrotation Yrotation Zrotation
						JOINT newVegas:Hair_Back
						{
							OFFSET 0.000000 3.231903 -17.524799
							CHANNELS 3 Xrotation Yrotation Zrotation
							End Site
							{
								OFFSET 0.000000 19.849884 0.000000
							}
						}
						JOINT newVegas:Hair_Front
						{
							OFFSET 0.000000 31.260406 4.573800
							CHANNELS 3 Xrotation Yrotation Zrotation
							JOINT newVegas:Hair_Front1
							{
								OFFSET 0.000000 2.284103 11.993300
								CHANNELS 3 Xrotation Yrotation Zrotation
								JOINT newVegas:Hair_Front2
								{
									OFFSET 0.000000 2.284103 11.993300
									CHANNELS 3 Xrotation Yrotation Zrotation
									End Site
									{
										OFFSET 0.000000 12.208862 0.000000
									}
								}
							}
						}
						JOINT newVegas:Jowel
						{
							OFFSET 0.000000 -7.458206 6.864100
							CHANNELS 3 Xrotation Yrotation Zrotation
							End Site
							{
								OFFSET 0.000000 19.849884 0.000000
							}
						}
					}
				}
				JOINT newVegas:LeftShoulder
				{
					OFFSET 15.263000 10.923401 -0.547700
					CHANNELS 3 Xrotation Yrotation Zrotation
					JOINT newVegas:LeftArm
					{
						OFFSET 25.438599 -2.830597 -13.032500
						CHANNELS 3 Xrotation Yrotation Zrotation
						JOINT newVegas:LeftForeArm
						{
							OFFSET 29.960503 0.000000 0.000000
							CHANNELS 3 Xrotation Yrotation Zrotation
							JOINT newVegas:LeftHand
							{
								OFFSET 27.849251 0.000000 0.000000
								CHANNELS 3 Xrotation Yrotation Zrotation
								JOINT newVegas:LeftHandThumb1
								{
									OFFSET 4.487587 -3.305161 6.305391
									CHANNELS 3 Xrotation Yrotation Zrotation
									JOINT newVegas:LeftHandThumb2
									{
										OFFSET 5.480453 -3.164139 3.164143
										CHANNELS 3 Xrotation Yrotation Zrotation
										JOINT newVegas:LeftHandThumb3
										{
											OFFSET 5.159721 -2.978973 2.978967
											CHANNELS 3 Xrotation Yrotation Zrotation
											End Site
											{
												OFFSET 2.494507 5.926697 1.738678
											}
										}
									}
								}
								JOINT newVegas:LeftHandIndex1
								{
									OFFSET 18.578728 -0.527832 5.208049
									CHANNELS 3 Xrotation Yrotation Zrotation
									JOINT newVegas:LeftHandIndex2
									{
										OFFSET 3.192009 0.000000 0.000000
										CHANNELS 3 Xrotation Yrotation Zrotation
										JOINT newVegas:LeftHandIndex3
										{
											OFFSET 3.835129 0.000000 0.000000
											CHANNELS 3 Xrotation Yrotation Zrotation
											End Site
											{
												OFFSET -0.034599 3.816971 0.371180
											}
										}
									}
								}
								JOINT newVegas:LeftHandMiddle1
								{
									OFFSET 18.476105 0.000000 0.000000
									CHANNELS 3 Xrotation Yrotation Zrotation
									JOINT newVegas:LeftHandMiddle2
									{
										OFFSET 3.324875 0.000000 0.000000
										CHANNELS 3 Xrotation Yrotation Zrotation
										JOINT newVegas:LeftHandMiddle3
										{
											OFFSET 4.596550 0.000000 0.000000
											CHANNELS 3 Xrotation Yrotation Zrotation
											End Site
											{
												OFFSET 0.057701 4.578827 0.399218
											}
										}
									}
								}
								JOINT newVegas:LeftHandRing1
								{
									OFFSET 17.732719 0.121887 -4.201567
									CHANNELS 3 Xrotation Yrotation Zrotation
									JOINT newVegas:LeftHandRing2
									{
										OFFSET 2.733170 0.000000 0.000000
										CHANNELS 3 Xrotation Yrotation Zrotation
										JOINT newVegas:LeftHandRing3
										{
											OFFSET 3.178268 0.000000 0.000000
											CHANNELS 3 Xrotation Yrotation Zrotation
											End Site
											{
												OFFSET 0.119102 3.170624 0.185394
											}
										}
									}
								}
								JOINT newVegas:LeftHandPinky1
								{
									OFFSET 15.989624 -0.606689 -7.535461
									CHANNELS 3 Xrotation Yrotation Zrotation
									JOINT newVegas:LeftHandPinky2
									{
										OFFSET 2.538986 0.000000 0.000000
										CHANNELS 3 Xrotation Yrotation Zrotation
										JOINT newVegas:LeftHandPinky3
										{
											OFFSET 2.593102 0.000000 0.000000
											CHANNELS 3 Xrotation Yrotation Zrotation
											End Site
											{
												OFFSET -0.150902 2.584198 0.152708
											}
										}
									}
								}
							}
							JOINT newVegas:Left_Sleeve
							{
								OFFSET 0.267448 -0.649796 0.577675
								CHANNELS 3 Xrotation Yrotation Zrotation
								End Site
								{
									OFFSET 0.000000 15.991241 0.000000
								}
							}
							JOINT newVegas:Left_CapeC
							{
								OFFSET 15.715958 -8.608795 -6.935905
								CHANNELS 3 Xrotation Yrotation Zrotation
								JOINT newVegas:Left_CapeC1
								{
									OFFSET 0.000000 -8.688499 0.000000
									CHANNELS 3 Xrotation Yrotation Zrotation
									End Site
									{
										OFFSET 0.000000 8.688499 0.000000
									}
								}
							}
						}
						JOINT newVegas:Left_CapeB
						{
							OFFSET 26.118385 -8.608795 -7.079235
							CHANNELS 3 Xrotation Yrotation Zrotation
							JOINT newVegas:Left_CapeB1
							{
								OFFSET 0.000000 -8.688499 0.000000
								CHANNELS 3 Xrotation Yrotation Zrotation
								End Site
								{
									OFFSET 0.000000 8.688499 0.000000
								}
							}
						}
						JOINT newVegas:Left_CapeA
						{
							OFFSET 5.115639 -8.608795 -10.395809
							CHANNELS 3 Xrotation Yrotation Zrotation
							JOINT newVegas:Left_CapeA1
							{
								OFFSET 0.000000 -8.688499 0.000000
								CHANNELS 3 Xrotation Yrotation Zrotation
								End Site
								{
									OFFSET 0.000000 8.688499 0.000000
								}
							}
						}
					}
				}
				JOINT newVegas:RightShoulder
				{
					OFFSET -15.263000 10.923401 -0.547700
					CHANNELS 3 Xrotation Yrotation Zrotation
					JOINT newVegas:RightArm
					{
						OFFSET -25.438599 -2.830597 -13.032500
						CHANNELS 3 Xrotation Yrotation Zrotation
						JOINT newVegas:RightForeArm
						{
							OFFSET -29.960503 0.000000 0.000000
							CHANNELS 3 Xrotation Yrotation Zrotation
							JOINT newVegas:RightHand
							{
								OFFSET -27.849251 0.000000 0.000000
								CHANNELS 3 Xrotation Yrotation Zrotation
								JOINT newVegas:RightHandThumb1
								{
									OFFSET -4.487587 -3.305161 6.305391
									CHANNELS 3 Xrotation Yrotation Zrotation
									JOINT newVegas:RightHandThumb2
									{
										OFFSET -5.480453 -3.164139 3.164143
										CHANNELS 3 Xrotation Yrotation Zrotation
										JOINT newVegas:RightHandThumb3
										{
											OFFSET -5.159721 -2.978973 2.978967
											CHANNELS 3 Xrotation Yrotation Zrotation
											End Site
											{
												OFFSET -2.494507 5.926697 1.738678
											}
										}
									}
								}
								JOINT newVegas:RightHandIndex1
								{
									OFFSET -18.578728 -0.527832 5.208049
									CHANNELS 3 Xrotation Yrotation Zrotation
									JOINT newVegas:RightHandIndex2
									{
										OFFSET -3.192009 0.000000 0.000000
										CHANNELS 3 Xrotation Yrotation Zrotation
										JOINT newVegas:RightHandIndex3
										{
											OFFSET -3.835129 0.000000 0.000000
											CHANNELS 3 Xrotation Yrotation Zrotation
											End Site
											{
												OFFSET 0.034599 3.816971 0.371180
											}
										}
									}
								}
								JOINT newVegas:RightHandMiddle1
								{
									OFFSET -18.476105 0.000000 0.000000
									CHANNELS 3 Xrotation Yrotation Zrotation
									JOINT newVegas:RightHandMiddle2
									{
										OFFSET -3.324875 0.000000 0.000000
										CHANNELS 3 Xrotation Yrotation Zrotation
										JOINT newVegas:RightHandMiddle3
										{
											OFFSET -4.596550 0.000000 0.000000
											CHANNELS 3 Xrotation Yrotation Zrotation
											End Site
											{
												OFFSET -0.057701 4.578827 0.399218
											}
										}
									}
								}
								JOINT newVegas:RightHandRing1
								{
									OFFSET -17.732719 0.121887 -4.201567
									CHANNELS 3 Xrotation Yrotation Zrotation
									JOINT newVegas:RightHandRing2
									{
										OFFSET -2.733170 0.000000 0.000000
										CHANNELS 3 Xrotation Yrotation Zrotation
										JOINT newVegas:RightHandRing3
										{
											OFFSET -3.178268 0.000000 0.000000
											CHANNELS 3 Xrotation Yrotation Zrotation
											End Site
											{
												OFFSET -0.119102 3.170624 0.185394
											}
										}
									}
								}
								JOINT newVegas:RightHandPinky1
								{
									OFFSET -15.989624 -0.606689 -7.535461
									CHANNELS 3 Xrotation Yrotation Zrotation
									JOINT newVegas:RightHandPinky2
									{
										OFFSET -2.538986 0.000000 0.000000
										CHANNELS 3 Xrotation Yrotation Zrotation
										JOINT newVegas:RightHandPinky3
										{
											OFFSET -2.593102 0.000000 0.000000
											CHANNELS 3 Xrotation Yrotation Zrotation
											End Site
											{
												OFFSET 0.150902 2.584198 0.152708
											}
										}
									}
								}
							}
							JOINT newVegas:Right_CapeC
							{
								OFFSET -15.715958 -8.608795 -6.935905
								CHANNELS 3 Xrotation Yrotation Zrotation
								JOINT newVegas:Right_CapeC1
								{
									OFFSET 0.000000 -8.688499 0.000000
									CHANNELS 3 Xrotation Yrotation Zrotation
									End Site
									{
										OFFSET 0.000000 8.688499 0.000000
									}
								}
							}
							JOINT newVegas:Right_Sleeve
							{
								OFFSET -0.267448 -0.649994 0.577675
								CHANNELS 3 Xrotation Yrotation Zrotation
								End Site
								{
									OFFSET 0.000000 15.991302 0.000000
								}
							}
						}
						JOINT newVegas:Right_CapeA
						{
							OFFSET -5.115540 -8.608795 -10.395824
							CHANNELS 3 Xrotation Yrotation Zrotation
							JOINT newVegas:Right_CapeA1
							{
								OFFSET 0.000000 -8.688499 0.000000
								CHANNELS 3 Xrotation Yrotation Zrotation
								End Site
								{
									OFFSET 0.000000 8.688499 0.000000
								}
							}
						}
						JOINT newVegas:Right_CapeB
						{
							OFFSET -26.118187 -8.608795 -7.079266
							CHANNELS 3 Xrotation Yrotation Zrotation
							JOINT newVegas:Right_CapeB1
							{
								OFFSET 0.000000 -8.688499 0.000000
								CHANNELS 3 Xrotation Yrotation Zrotation
								End Site
								{
									OFFSET 0.000000 8.688499 0.000000
								}
							}
						}
					}
				}
				JOINT newVegas:Left_Collar
				{
					OFFSET 18.625099 8.655502 8.828100
					CHANNELS 3 Xrotation Yrotation Zrotation
					JOINT newVegas:Left_Collar1
					{
						OFFSET 14.783401 10.540405 -1.259500
						CHANNELS 3 Xrotation Yrotation Zrotation
						End Site
						{
							OFFSET 0.000000 18.199875 0.000000
						}
					}
				}
				JOINT newVegas:Collar_Back
				{
					OFFSET 0.000000 15.630707 -20.132601
					CHANNELS 3 Xrotation Yrotation Zrotation
					End Site
					{
						OFFSET 0.000000 22.523010 0.000000
					}
				}
				JOINT newVegas:Left_Peck
				{
					OFFSET 17.239599 -5.132599 25.482599
					CHANNELS 3 Xrotation Yrotation Zrotation
					End Site
					{
						OFFSET 0.000000 22.523010 0.000000
					}
				}
				JOINT newVegas:Right_Peck
				{
					OFFSET -17.239599 -5.132202 25.482599
					CHANNELS 3 Xrotation Yrotation Zrotation
					End Site
					{
						OFFSET 0.000000 22.523010 0.000000
					}
				}
				JOINT newVegas:Right_Collar
				{
					OFFSET -18.625099 8.655792 8.828100
					CHANNELS 3 Xrotation Yrotation Zrotation
					JOINT newVegas:Right_Collar1
					{
						OFFSET -14.783401 10.539993 -1.259500
						CHANNELS 3 Xrotation Yrotation Zrotation
						End Site
						{
							OFFSET 0.000000 18.199631 0.000000
						}
					}
				}
			}
		}
		JOINT newVegas:Belly
		{
			OFFSET 0.000000 -6.540398 9.014299
			CHANNELS 3 Xrotation Yrotation Zrotation
			End Site
			{
				OFFSET 0.000000 11.566666 0.000000
			}
		}
	}
	JOINT newVegas:ElvisFacialAnim_Joint
	{
		OFFSET 1.000000 -95.330101 -8.825800
		CHANNELS 3 Xrotation Yrotation Zrotation
		End Site
		{
			OFFSET 0.000000 35.315800 0.000000
		}
	}
}
MOTION
Frames: 4
Frame Time: 0.033333
0.650291 87.516579 1.655598 1.944039 8.202928 3.171027 -0.000000 0.000000 -0.000000 -28.552875 0.317112 3.851302 69.124294 -1.795751 -2.229503 -21.407105 20.809961 -7.931429 0.000000 0.000002 0.000000 -0.000000 0.000000 0.000001 -28.715102 -6.064107 -3.225548 62.319691 1.107030 2.128857 -27.999162 -17.190667 -2.470402 0.000001 -0.000001 0.000000 0.000001 -0.000000 -0.000000 8.294408 -1.421724 0.088087 16.587249 -2.867824 0.074432 16.587260 -2.867825 0.074431 -1.151546 0.557733 -0.729801 -1.151535 0.557733 -0.729800 -0.000000 -0.000000 0.000000 -1.151551 0.557731 -0.729800 -1.151526 0.557737 -0.729801 -0.000004 0.000000 -0.000000 -0.000000 -0.000000 0.000000 0.401885 1.660879 -5.496231 -20.517069 -67.128643 -65.515687 2.768856 -69.683687 2.596639 45.570520 9.330445 -11.459984 3.712534 14.060631 -6.685148 3.280311 9.370909 1.667160 -0.000003 -0.000002 -0.000003 -10.972728 0.633148 -19.075180 0.740149 1.851773 -22.932162 0.000000 0.000001 0.000001 -4.660845 1.030328 -33.775767 -0.554543 -1.488223 -35.120348 0.000000 0.000003 0.000003 -0.403305 2.683428 -40.510040 -1.287301 -2.395438 -40.426281 0.000002 0.000001 0.000001 2.631914 -1.688978 -51.089829 -3.611557 -7.747928 -48.997742 -0.000000 -0.000005 0.000004 -0.000001 0.000000 0.000003 -0.000001 0.000000 0.000003 -0.000001 -0.000000 0.000003 -0.000001 0.000001 0.000000 -0.000001 0.000001 0.000000 -0.000001 0.000001 0.000000 -0.000001 0.000001 0.000000 0.576652 3.123471 5.581910 -1.516337 50.416799 51.330022 -5.595295 103.438161 5.443361 32.397032 -2.841017 32.962472 26.287853 17.405887 14.132868 0.359591 -1.630888 0.557847 0.000001 0.000002 0.000001 -10.814402 -8.867595 15.710933 0.392331 -1.738099 30.431426 -0.000002 -0.000000 0.000002 -0.570470 -5.344622 27.869246 -1.369452 2.644868 49.353680 -0.000002 0.000001 -0.000000 1.999763 -8.519741 39.987144 -1.988350 2.193733 62.172603 -0.000001 0.000003 -0.000002 9.740443 -10.061444 53.436210 -3.792370 5.646516 64.793749 0.000003 -0.000000 0.000001 0.000000 -0.000001 0.000001 0.000000 -0.000001 0.000001 0.000000 -0.000001 0.000001 -0.000001 -0.000002 -0.000001 -0.000001 -0.000002 -0.000001 -0.000001 -0.000002 -0.000001 -0.000001 -0.000002 -0.000001 -0.000001 0.000000 -0.000000 -0.000001 0.000000 -0.000000 -0.000001 0.000000 -0.000000 -0.000001 0.000000 -0.000000 -0.000001 0.000000 -0.000000 -0.000001 0.000000 -0.000000 -0.000001 0.000000 -0.000000 0.000001 0.000000 -0.000000 -0.000000 0.000000 -0.000000 
0.727634 88.507767 6.019776 2.754899 8.723064 2.804030 0.000000 -0.000000 -0.000000 -30.539179 0.915882 2.184496 63.534515 -1.480920 -2.088342 -25.267849 19.152440 -5.492907 0.000000 0.000001 -0.000000 0.000000 0.000001 -0.000000 -24.786748 -6.416538 -3.251573 58.948788 1.223415 2.088420 -25.992695 -16.645596 -0.378458 -0.000000 -0.000001 0.000000 0.000000 0.000001 -0.000000 8.201810 -1.145677 0.063452 16.405621 -2.260968 0.152915 16.405624 -2.260969 0.152915 -0.879322 0.668672 -0.555124 -0.879288 0.668672 -0.555124 0.000000 -0.000000 -0.000000 -0.879296 0.668672 -0.555124 -0.879202 0.668673 -0.555127 -0.000007 0.000000 0.000000 0.000000 -0.000000 0.000000 0.394493 1.174491 -6.024663 -15.875036 -67.571328 -58.108599 3.702097 -70.997385 3.500631 42.513102 9.471711 -12.930987 3.712548 14.060633 -6.685159 3.280313 9.370901 1.667164 -0.000002 -0.000002 -0.000005 -10.972723 0.633153 -19.075180 0.740161 1.851757 -22.932140 -0.000001 0.000005 -0.000002 -4.660846 1.030325 -33.775777 -0.554552 -1.488223 -35.120327 0.000000 0.000001 0.000001 -0.403279 2.683432 -40.510047 -1.287305 -2.395435 -40.426288 -0.000002 0.000001 -0.000000 2.631913 -1.688989 -51.089815 -3.611568 -7.747929 -48.997738 0.000005 -0.000003 -0.000001 -0.000001 -0.000001 -0.000002 -0.000001 -0.000001 -0.000002 -0.000002 -0.000001 -0.000001 0.000001 0.000000 0.000000 0.000001 0.000000 0.000000 0.000001 0.000000 0.000000 0.000001 0.000001 0.000000 0.584948 3.319333 5.443235 -2.820138 51.997769 50.807312 -5.864660 102.750402 5.721321 32.562087 -3.734254 29.800959 26.287860 17.405873 14.132902 0.359600 -1.630884 0.557823 0.000002 -0.000002 -0.000001 -10.814371 -8.867611 15.710936 0.392325 -1.738093 30.431430 -0.000000 0.000005 0.000002 -0.570467 -5.344625 27.869236 -1.369457 2.644871 49.353677 0.000000 -0.000002 -0.000000 1.999775 -8.519756 39.987144 -1.988366 2.193731 62.172617 0.000002 0.000002 -0.000001 9.740451 -10.061441 53.436224 -3.792384 5.646526 64.793743 -0.000001 0.000003 -0.000000 0.000000 -0.000000 0.000001 0.000000 -0.000000 0.000001 0.000000 -0.000000 0.000001 0.000001 0.000001 -0.000000 0.000001 0.000001 0.000000 0.000001 0.000001 -0.000000 0.000001 0.000001 0.000000 -0.000000 -0.000000 0.000000 -0.000000 -0.000000 0.000000 -0.000000 -0.000000 0.000000 -0.000000 -0.000000 0.000000 -0.000000 -0.000000 0.000000 -0.000000 -0.000000 0.000000 -0.000000 -0.000000 0.000000 -0.000000 0.000000 -0.000000 0.000000 -0.000000 -0.000000 
1.169899 89.810135 10.590717 3.150012 9.190539 2.684884 0.000000 0.000000 0.000000 -30.588008 2.529129 -1.226138 54.291811 -0.529747 -1.770523 -27.505366 16.301652 2.310010 -0.000000 -0.000001 -0.000000 -0.000002 -0.000000 -0.000000 -20.531844 -6.275955 -3.419049 54.036915 1.153730 1.983047 -21.162446 -14.978535 0.896577 -0.000001 0.000000 0.000000 0.000001 -0.000000 -0.000000 8.296018 -0.975777 0.106866 16.594957 -1.885127 0.262816 16.594979 -1.885125 0.262818 -0.916811 0.827952 -0.363852 -0.916788 0.827950 -0.363849 -0.000002 -0.000001 0.000000 -0.916827 0.827948 -0.363851 -0.916850 0.827941 -0.363848 -0.000003 0.000000 -0.000000 -0.000002 -0.000001 0.000000 0.422874 1.105773 -6.027209 -13.475605 -68.412227 -52.918666 3.884521 -71.098718 3.675423 40.039873 10.657600 -11.902621 3.712560 14.060643 -6.685166 3.280297 9.370899 1.667164 -0.000005 0.000001 -0.000006 -10.972716 0.633151 -19.075170 0.740159 1.851753 -22.932157 -0.000000 -0.000001 -0.000003 -4.660836 1.030338 -33.775764 -0.554547 -1.488221 -35.120351 -0.000002 0.000001 -0.000002 -0.403282 2.683436 -40.510047 -1.287279 -2.395428 -40.426274 0.000004 -0.000001 0.000003 2.631915 -1.688970 -51.089825 -3.611553 -7.747924 -48.997725 -0.000001 -0.000002 -0.000001 0.000001 0.000000 -0.000002 0.000001 0.000000 -0.000002 0.000001 -0.000000 -0.000001 0.000003 0.000001 -0.000000 0.000003 0.000001 -0.000000 0.000003 0.000001 -0.000000 0.000002 0.000001 0.000000 0.573987 3.621728 6.108614 -2.842929 53.754576 47.543994 -6.298778 102.038819 6.161642 31.109777 -4.518448 26.045398 26.287861 17.405875 14.132900 0.359585 -1.630879 0.557844 0.000004 -0.000002 -0.000001 -10.814381 -8.867618 15.710955 0.392323 -1.738089 30.431406 -0.000001 -0.000001 0.000006 -0.570432 -5.344627 27.869257 -1.369444 2.644888 49.353694 -0.000000 -0.000002 -0.000000 1.999756 -8.519767 39.987148 -1.988352 2.193727 62.172596 -0.000005 0.000001 -0.000002 9.740461 -10.061454 53.436251 -3.792380 5.646521 64.793749 0.000000 0.000002 -0.000000 0.000000 -0.000000 -0.000001 0.000000 -0.000000 -0.000001 0.000000 0.000000 -0.000001 -0.000001 -0.000001 -0.000000 -0.000001 -0.000001 -0.000000 -0.000001 -0.000001 -0.000000 -0.000001 -0.000001 0.000000 -0.000002 0.000000 -0.000000 -0.000002 0.000000 -0.000000 -0.000002 0.000000 -0.000000 -0.000002 0.000000 -0.000000 -0.000002 0.000000 -0.000000 -0.000002 0.000000 -0.000000 -0.000002 0.000000 -0.000000 0.000000 0.000000 -0.000000 0.000000 0.000000 0.000000 
1.595100 90.943825 15.163921 3.710697 9.168382 2.865261 0.000000 -0.000000 -0.000000 -28.947745 3.919952 -2.958109 43.193385 -0.315568 -1.470638 -27.311022 15.161727 2.609953 -0.000000 -0.000001 0.000000 -0.000000 0.000000 -0.000001 -17.743377 -5.854065 -3.752240 50.266265 0.904956 1.863997 -15.972496 -11.955281 0.833182 -0.000000 0.000000 -0.000000 -0.000002 -0.000000 -0.000001 8.132634 -0.791609 0.131480 16.265312 -1.537017 0.179315 16.265315 -1.537018 0.179317 -1.032599 0.995393 -0.219174 -1.032618 0.995391 -0.219175 0.000000 -0.000000 0.000000 -1.032583 0.995398 -0.219175 -1.032500 0.995383 -0.219175 -0.000001 -0.000001 0.000001 0.000000 -0.000000 0.000000 0.446624 0.375199 -6.433352 -9.431994 -68.539808 -46.355893 2.821122 -71.079730 2.668710 37.427271 12.467007 -10.961663 3.712539 14.060652 -6.685158 3.280309 9.370892 1.667144 -0.000001 -0.000000 -0.000006 -10.972727 0.633172 -19.075183 0.740143 1.851744 -22.932152 -0.000002 -0.000000 0.000001 -4.660826 1.030348 -33.775774 -0.554583 -1.488223 -35.120331 0.000001 -0.000001 0.000002 -0.403292 2.683452 -40.510050 -1.287291 -2.395433 -40.426271 0.000002 -0.000001 0.000001 2.631917 -1.688969 -51.089818 -3.611575 -7.747928 -48.997742 0.000002 -0.000003 0.000002 0.000000 -0.000004 0.000003 0.000000 -0.000004 0.000003 0.000000 -0.000004 0.000004 -0.000001 -0.000001 -0.000000 -0.000001 -0.000001 -0.000000 -0.000001 -0.000001 -0.000000 -0.000001 -0.000001 -0.000000 0.531968 4.798734 7.368572 -1.744861 54.462323 43.499494 -6.980146 101.127262 6.850585 29.566933 -4.814840 22.429349 26.287870 17.405880 14.132895 0.359605 -1.630891 0.557843 0.000000 0.000003 -0.000000 -10.814384 -8.867612 15.710938 0.392319 -1.738078 30.431426 -0.000001 -0.000002 0.000001 -0.570441 -5.344621 27.869253 -1.369471 2.644865 49.353680 0.000003 -0.000003 -0.000002 1.999775 -8.519749 39.987144 -1.988354 2.193725 62.172630 0.000002 -0.000001 -0.000001 9.740464 -10.061435 53.436224 -3.792403 5.646518 64.793743 -0.000002 0.000003 -0.000001 -0.000000 -0.000001 -0.000001 -0.000000 -0.000001 -0.000003 0.000000 -0.000000 -0.000001 -0.000003 0.000000 -0.000000 -0.000003 0.000000 -0.000000 -0.000003 0.000000 -0.000000 -0.000003 -0.000000 -0.000000 -0.000002 0.000000 -0.000001 -0.000002 0.000000 -0.000001 -0.000002 0.000000 -0.000001 -0.000002 0.000000 -0.000001 -0.000002 0.000000 -0.000001 -0.000002 0.000000 -0.000001 -0.000002 0.000000 -0.000001 -0.000000 -0.000000 -0.000000 0.000000 -0.000000 -0.000000 
